<svg xmlns="http://www.w3.org/2000/svg" width="408.5" height="408.5" viewBox="0 0 408.5 408.5">
  <g id="Group_5" data-name="Group 5" transform="translate(-118.823 -118.479)">
    <circle id="path919" cx="204.25" cy="204.25" r="204.25" transform="translate(118.823 118.479)" fill="aqua"/>
    <g id="g903" transform="translate(-123.56 -95.934)">
      <path id="path21" d="M431.946,267.52v2.273a22.5,22.5,0,0,1,3.121-2.273Zm26.244,0a22.5,22.5,0,0,1,3.119,2.273V267.52Zm-26.244,36.169v49.452a83.223,83.223,0,0,1,15.1-1.373,88.255,88.255,0,0,1,14.265,1.164V303.689a22.4,22.4,0,0,1-29.363,0Zm15.926,74.6a59.5,59.5,0,0,0-15.926,2.086V452.69c8.839,4.7,19.037,8.761,29.363,13.062V379.7a62.857,62.857,0,0,0-13.437-1.412ZM431.946,482.25v96.184c.857.219,1.727.416,2.605.6h26.757V494.841c-9.3-4.313-19.441-8.248-29.363-12.592Z"/>
      <path id="path18" d="M448.706,587.044c42.269,0,76.664-25.278,76.664-68.79,0-84.538-121-63.817-121-123.077,0-24.864,20.306-36.882,43.512-36.882,19.062,0,34.81,7.874,44.755,21.963l20.72-17.4c-13.675-17.4-37.71-31.08-66.3-31.08-38.125,0-69.2,24.864-69.2,65.475,0,79.979,121,60.088,121,121.833,0,26.522-21.963,41.44-49.728,41.44-28.179,0-48.485-15.333-57.187-38.125L367.9,536.487c12.846,30.666,43.926,50.557,80.808,50.557Z"/>
      <path id="path30" d="M284.014,352.293l-17.922,4.8-17.922,4.8,4.8-17.922,4.8-17.922,13.119,13.119Z" transform="matrix(0.966, -0.259, 0.259, 0.966, 34.562, 251.198)"/>
      <g id="g913">
        <path id="path917" d="M446.635,250.283A36.463,36.463,0,1,0,483.1,286.742,36.676,36.676,0,0,0,446.635,250.283Zm0,28.073a8.39,8.39,0,1,1-8.393,8.386A8.183,8.183,0,0,1,446.635,278.356Z"/>
      </g>
    </g>
  </g>
</svg>
